<?xml version="1.0" encoding="UTF-8" standalone="no"?><!DOCTYPE svg PUBLIC "-//W3C//DTD SVG 1.1//EN" "http://www.w3.org/Graphics/SVG/1.1/DTD/svg11.dtd"><svg width="100%" height="100%" viewBox="0 0 800 250" version="1.1" xmlns="http://www.w3.org/2000/svg" xmlns:xlink="http://www.w3.org/1999/xlink" xml:space="preserve" xmlns:serif="http://www.serif.com/" style="fill-rule:evenodd;clip-rule:evenodd;stroke-linecap:round;stroke-linejoin:round;"><g transform="matrix(41.666667,0,0,41.666667,260.111116,137.755555)"><path d="M0.083,-0l0,-0.7l0.134,0l0.413,0.504l-0.065,-0l0,-0.504l0.16,0l0,0.7l-0.134,-0l-0.413,-0.504l0.065,0l0,0.504l-0.16,-0Z" style="fill:#1261a0;fill-rule:nonzero;"/></g><g transform="matrix(41.666667,0,0,41.666667,293.777783,137.755555)"><path d="M0.339,0.008c-0.061,0 -0.115,-0.012 -0.161,-0.036c-0.046,-0.024 -0.082,-0.057 -0.107,-0.098c-0.025,-0.042 -0.038,-0.089 -0.038,-0.142c0,-0.054 0.012,-0.101 0.037,-0.143c0.025,-0.042 0.059,-0.074 0.102,-0.098c0.043,-0.024 0.092,-0.035 0.147,-0.035c0.053,0 0.1,0.011 0.143,0.034c0.042,0.022 0.076,0.054 0.1,0.096c0.025,0.042 0.037,0.091 0.037,0.149c0,0.006 -0,0.013 -0.001,0.02c-0,0.008 -0.001,0.015 -0.002,0.021l-0.437,0l0,-0.091l0.355,0l-0.06,0.027c0,-0.028 -0.005,-0.052 -0.017,-0.073c-0.011,-0.021 -0.027,-0.037 -0.047,-0.049c-0.02,-0.012 -0.043,-0.018 -0.07,-0.018c-0.027,0 -0.05,0.006 -0.071,0.018c-0.02,0.012 -0.036,0.028 -0.047,0.049c-0.011,0.021 -0.017,0.046 -0.017,0.074l0,0.024c-0,0.029 0.006,0.055 0.019,0.077c0.013,0.022 0.031,0.039 0.055,0.051c0.024,0.012 0.052,0.018 0.084,0.018c0.029,-0 0.054,-0.004 0.075,-0.013c0.022,-0.009 0.042,-0.022 0.06,-0.04l0.083,0.09c-0.025,0.028 -0.056,0.05 -0.093,0.065c-0.037,0.015 -0.08,0.022 -0.129,0.022Z" style="fill:#1261a0;fill-rule:nonzero;"/></g><g transform="matrix(41.666667,0,0,41.666667,319.444449,137.755555)"><path d="M0.004,-0l0.242,-0.316l-0.003,0.086l-0.231,-0.308l0.175,0l0.146,0.201l-0.066,0.002l0.15,-0.203l0.166,0l-0.233,0.305l0.001,-0.085l0.24,0.317l-0.178,-0l-0.153,-0.214l0.065,0.009l-0.152,0.205l-0.171,-0Z" style="fill:#1261a0;fill-rule:nonzero;"/></g><g transform="matrix(41.666667,0,0,41.666667,343.611116,137.755555)"><path d="M0.328,0.008c-0.057,0 -0.108,-0.012 -0.152,-0.036c-0.044,-0.024 -0.079,-0.056 -0.105,-0.098c-0.026,-0.042 -0.038,-0.089 -0.038,-0.143c0,-0.054 0.013,-0.102 0.038,-0.143c0.026,-0.041 0.06,-0.074 0.105,-0.098c0.044,-0.024 0.095,-0.035 0.152,-0.035c0.057,0 0.108,0.012 0.153,0.035c0.045,0.024 0.079,0.056 0.105,0.097c0.025,0.041 0.038,0.089 0.038,0.143c0,0.054 -0.013,0.102 -0.038,0.143c-0.025,0.042 -0.06,0.074 -0.105,0.098c-0.045,0.024 -0.096,0.036 -0.152,0.036Zm0,-0.128c0.026,0 0.05,-0.006 0.07,-0.018c0.021,-0.012 0.037,-0.029 0.049,-0.052c0.012,-0.023 0.018,-0.049 0.018,-0.08c0,-0.031 -0.006,-0.058 -0.018,-0.08c-0.012,-0.022 -0.028,-0.039 -0.049,-0.051c-0.021,-0.012 -0.044,-0.018 -0.07,-0.018c-0.026,0 -0.049,0.006 -0.07,0.018c-0.021,0.012 -0.037,0.029 -0.049,0.051c-0.012,0.022 -0.018,0.049 -0.018,0.08c0,0.031 0.006,0.057 0.018,0.08c0.012,0.023 0.029,0.04 0.049,0.052c0.021,0.012 0.044,0.018 0.07,0.018Z" style="fill:#1261a0;fill-rule:nonzero;"/></g><g transform="matrix(41.666667,0,0,41.666667,370.902783,137.755555)"><path d="M0.072,-0l0,-0.538l0.149,0l-0,0.152l-0.021,-0.044c0.016,-0.038 0.041,-0.067 0.077,-0.087c0.035,-0.02 0.078,-0.029 0.129,-0.029l0,0.144c-0.007,-0.001 -0.013,-0.002 -0.018,-0.002c-0.005,-0 -0.011,-0.001 -0.017,-0.001c-0.043,0 -0.078,0.012 -0.104,0.037c-0.026,0.025 -0.039,0.062 -0.039,0.114l0,0.254l-0.156,-0Z" style="fill:#1261a0;fill-rule:nonzero;"/></g><g transform="matrix(41.666667,0,0,41.666667,387.236116,137.755555)"><path d="M0.402,-0l0,-0.105l-0.009,-0.024l0,-0.188c0,-0.034 -0.01,-0.059 -0.031,-0.078c-0.02,-0.018 -0.052,-0.028 -0.094,-0.028c-0.028,-0 -0.056,0.004 -0.084,0.013c-0.028,0.009 -0.051,0.021 -0.071,0.036l-0.056,-0.109c0.03,-0.021 0.065,-0.037 0.106,-0.048c0.041,-0.011 0.083,-0.017 0.126,-0.017c0.082,0 0.146,0.019 0.191,0.058c0.045,0.039 0.068,0.099 0.068,0.18l0,0.307l-0.147,-0Zm-0.163,0.008c-0.042,0 -0.078,-0.007 -0.108,-0.021c-0.03,-0.014 -0.053,-0.034 -0.069,-0.058c-0.016,-0.025 -0.024,-0.052 -0.024,-0.083c0,-0.032 0.008,-0.06 0.023,-0.084c0.016,-0.024 0.04,-0.043 0.074,-0.057c0.034,-0.014 0.078,-0.021 0.133,-0.021l0.142,0l0,0.091l-0.125,0c-0.037,0 -0.062,0.006 -0.076,0.018c-0.014,0.012 -0.02,0.027 -0.02,0.046c0,0.019 0.008,0.035 0.023,0.047c0.016,0.012 0.037,0.018 0.064,0.018c0.026,0 0.05,-0.006 0.071,-0.018c0.021,-0.012 0.036,-0.03 0.045,-0.055l0.024,0.072c-0.011,0.034 -0.032,0.06 -0.062,0.078c-0.03,0.018 -0.069,0.027 -0.116,0.027Z" style="fill:#1261a0;fill-rule:nonzero;"/></g><g transform="matrix(41.666667,0,0,41.666667,412.944449,137.755555)"></g><g transform="matrix(41.666667,0,0,41.666667,424.736116,137.755555)"><path d="M0.292,0.008c-0.064,0 -0.113,-0.016 -0.148,-0.048c-0.035,-0.032 -0.053,-0.08 -0.053,-0.144l0,-0.472l0.156,0l0,0.47c0,0.023 0.006,0.04 0.018,0.053c0.012,0.013 0.028,0.019 0.049,0.019c0.025,0 0.046,-0.007 0.064,-0.02l0.041,0.11c-0.016,0.011 -0.035,0.02 -0.057,0.025c-0.022,0.005 -0.045,0.008 -0.069,0.008Zm-0.284,-0.426l0,-0.12l0.373,0l0,0.12l-0.373,0Z" style="fill:#1261a0;fill-rule:nonzero;"/></g><g transform="matrix(41.666667,0,0,41.666667,442.152783,137.755555)"><path d="M0.339,0.008c-0.061,0 -0.115,-0.012 -0.161,-0.036c-0.046,-0.024 -0.082,-0.057 -0.107,-0.098c-0.025,-0.042 -0.038,-0.089 -0.038,-0.142c0,-0.054 0.012,-0.101 0.037,-0.143c0.025,-0.042 0.059,-0.074 0.102,-0.098c0.043,-0.024 0.092,-0.035 0.147,-0.035c0.053,0 0.1,0.011 0.143,0.034c0.042,0.022 0.076,0.054 0.1,0.096c0.025,0.042 0.037,0.091 0.037,0.149c0,0.006 -0,0.013 -0.001,0.02c-0,0.008 -0.001,0.015 -0.002,0.021l-0.437,0l0,-0.091l0.355,0l-0.06,0.027c0,-0.028 -0.005,-0.052 -0.017,-0.073c-0.011,-0.021 -0.027,-0.037 -0.047,-0.049c-0.02,-0.012 -0.043,-0.018 -0.07,-0.018c-0.027,0 -0.05,0.006 -0.071,0.018c-0.02,0.012 -0.036,0.028 -0.047,0.049c-0.011,0.021 -0.017,0.046 -0.017,0.074l0,0.024c-0,0.029 0.006,0.055 0.019,0.077c0.013,0.022 0.031,0.039 0.055,0.051c0.024,0.012 0.052,0.018 0.084,0.018c0.029,-0 0.054,-0.004 0.075,-0.013c0.022,-0.009 0.042,-0.022 0.06,-0.04l0.083,0.09c-0.025,0.028 -0.056,0.05 -0.093,0.065c-0.037,0.015 -0.08,0.022 -0.129,0.022Z" style="fill:#1261a0;fill-rule:nonzero;"/></g><g transform="matrix(41.666667,0,0,41.666667,468.444449,137.755555)"><path d="M0.332,0.008c-0.058,0 -0.109,-0.012 -0.155,-0.035c-0.045,-0.024 -0.081,-0.056 -0.106,-0.098c-0.026,-0.042 -0.038,-0.09 -0.038,-0.143c0,-0.054 0.013,-0.102 0.038,-0.143c0.026,-0.041 0.061,-0.074 0.106,-0.098c0.045,-0.024 0.097,-0.035 0.155,-0.035c0.057,0 0.106,0.012 0.148,0.035c0.042,0.023 0.073,0.057 0.093,0.101l-0.12,0.065c-0.015,-0.025 -0.032,-0.044 -0.053,-0.056c-0.021,-0.012 -0.044,-0.018 -0.068,-0.018c-0.026,0 -0.05,0.006 -0.072,0.018c-0.021,0.012 -0.038,0.029 -0.051,0.051c-0.012,0.022 -0.019,0.049 -0.019,0.08c0,0.031 0.006,0.058 0.019,0.08c0.012,0.022 0.029,0.039 0.051,0.051c0.021,0.012 0.045,0.018 0.072,0.018c0.025,0 0.047,-0.006 0.068,-0.018c0.021,-0.012 0.039,-0.03 0.053,-0.056l0.12,0.065c-0.02,0.043 -0.05,0.077 -0.093,0.101c-0.042,0.024 -0.091,0.035 -0.148,0.035Z" style="fill:#1261a0;fill-rule:nonzero;"/></g><g transform="matrix(41.666667,0,0,41.666667,492.902783,137.755555)"><path d="M0.072,-0l0,-0.742l0.156,0l0,0.353l-0.035,-0.045c0.019,-0.036 0.047,-0.064 0.083,-0.083c0.036,-0.019 0.077,-0.029 0.123,-0.029c0.043,0 0.081,0.008 0.115,0.025c0.034,0.017 0.06,0.043 0.08,0.078c0.019,0.035 0.029,0.08 0.029,0.135l0,0.308l-0.156,-0l0,-0.284c0,-0.043 -0.01,-0.075 -0.029,-0.096c-0.019,-0.021 -0.046,-0.031 -0.08,-0.031c-0.025,0 -0.047,0.005 -0.067,0.016c-0.02,0.01 -0.035,0.026 -0.046,0.047c-0.011,0.021 -0.016,0.049 -0.016,0.082l0,0.266l-0.156,-0Z" style="fill:#1261a0;fill-rule:nonzero;"/></g><g transform="matrix(41.666667,0,0,41.666667,521.694449,137.755555)"></g><g transform="matrix(41.666667,0,0,41.666667,533.486116,137.755555)"><path d="M0.402,-0l0,-0.105l-0.009,-0.024l0,-0.188c0,-0.034 -0.01,-0.059 -0.031,-0.078c-0.02,-0.018 -0.052,-0.028 -0.094,-0.028c-0.028,-0 -0.056,0.004 -0.084,0.013c-0.028,0.009 -0.051,0.021 -0.071,0.036l-0.056,-0.109c0.03,-0.021 0.065,-0.037 0.106,-0.048c0.041,-0.011 0.083,-0.017 0.126,-0.017c0.082,0 0.146,0.019 0.191,0.058c0.045,0.039 0.068,0.099 0.068,0.18l0,0.307l-0.147,-0Zm-0.163,0.008c-0.042,0 -0.078,-0.007 -0.108,-0.021c-0.03,-0.014 -0.053,-0.034 -0.069,-0.058c-0.016,-0.025 -0.024,-0.052 -0.024,-0.083c0,-0.032 0.008,-0.06 0.023,-0.084c0.016,-0.024 0.04,-0.043 0.074,-0.057c0.034,-0.014 0.078,-0.021 0.133,-0.021l0.142,0l0,0.091l-0.125,0c-0.037,0 -0.062,0.006 -0.076,0.018c-0.014,0.012 -0.02,0.027 -0.02,0.046c0,0.019 0.008,0.035 0.023,0.047c0.016,0.012 0.037,0.018 0.064,0.018c0.026,0 0.05,-0.006 0.071,-0.018c0.021,-0.012 0.036,-0.03 0.045,-0.055l0.024,0.072c-0.011,0.034 -0.032,0.06 -0.062,0.078c-0.03,0.018 -0.069,0.027 -0.116,0.027Z" style="fill:#1261a0;fill-rule:nonzero;"/></g><g transform="matrix(41.666667,0,0,41.666667,559.194449,137.755555)"><path d="M0.072,-0l0,-0.538l0.149,0l-0,0.149l-0.028,-0.045c0.019,-0.036 0.047,-0.064 0.083,-0.083c0.036,-0.019 0.077,-0.029 0.123,-0.029c0.043,0 0.081,0.008 0.115,0.025c0.034,0.017 0.06,0.043 0.08,0.078c0.019,0.035 0.029,0.08 0.029,0.135l0,0.308l-0.156,-0l0,-0.284c0,-0.043 -0.01,-0.075 -0.029,-0.096c-0.019,-0.021 -0.046,-0.031 -0.08,-0.031c-0.025,0 -0.047,0.005 -0.067,0.016c-0.02,0.01 -0.035,0.026 -0.046,0.047c-0.011,0.021 -0.016,0.049 -0.016,0.082l0,0.266l-0.156,-0Z" style="fill:#1261a0;fill-rule:nonzero;"/></g><g transform="matrix(41.666667,0,0,41.666667,588.152783,137.755555)"><path d="M0.303,0.008c-0.05,0 -0.096,-0.011 -0.136,-0.034c-0.041,-0.023 -0.073,-0.055 -0.097,-0.096c-0.024,-0.041 -0.035,-0.09 -0.035,-0.146c0,-0.056 0.012,-0.105 0.035,-0.146c0.024,-0.041 0.056,-0.073 0.097,-0.096c0.041,-0.023 0.086,-0.034 0.136,-0.034c0.046,0 0.085,0.01 0.119,0.03c0.034,0.02 0.06,0.05 0.079,0.091c0.019,0.041 0.028,0.093 0.028,0.156c0,0.063 -0.009,0.115 -0.027,0.156c-0.018,0.041 -0.044,0.071 -0.078,0.091c-0.034,0.02 -0.074,0.03 -0.122,0.03Zm0.027,-0.128c0.026,0 0.049,-0.006 0.07,-0.018c0.021,-0.012 0.037,-0.029 0.049,-0.052c0.012,-0.023 0.018,-0.049 0.018,-0.08c0,-0.031 -0.006,-0.058 -0.018,-0.08c-0.012,-0.022 -0.029,-0.039 -0.049,-0.051c-0.021,-0.012 -0.044,-0.018 -0.07,-0.018c-0.026,0 -0.049,0.006 -0.07,0.018c-0.021,0.012 -0.037,0.029 -0.049,0.051c-0.012,0.022 -0.018,0.049 -0.018,0.08c0,0.031 0.006,0.057 0.018,0.08c0.012,0.023 0.029,0.04 0.049,0.052c0.021,0.012 0.044,0.018 0.07,0.018Zm0.142,0.12l0,-0.11l0.003,-0.16l-0.01,-0.16l0,-0.313l0.156,0l0,0.742l-0.149,-0Z" style="fill:#1261a0;fill-rule:nonzero;"/></g><g transform="matrix(41.666667,0,0,41.666667,616.986116,137.755555)"></g><g transform="matrix(41.666667,0,0,41.666667,628.777783,137.755555)"><path d="M0.072,-0l0,-0.538l0.149,0l-0,0.147l-0.028,-0.043c0.019,-0.037 0.045,-0.064 0.08,-0.083c0.034,-0.019 0.074,-0.028 0.118,-0.028c0.049,0 0.092,0.012 0.129,0.037c0.037,0.025 0.062,0.063 0.074,0.115l-0.055,-0.015c0.018,-0.042 0.047,-0.075 0.086,-0.1c0.04,-0.025 0.085,-0.037 0.137,-0.037c0.043,0 0.08,0.008 0.113,0.025c0.033,0.017 0.059,0.043 0.078,0.078c0.019,0.035 0.028,0.08 0.028,0.135l0,0.308l-0.156,-0l0,-0.284c0,-0.043 -0.009,-0.075 -0.027,-0.096c-0.018,-0.021 -0.043,-0.031 -0.075,-0.031c-0.023,0 -0.043,0.005 -0.061,0.015c-0.018,0.01 -0.032,0.026 -0.042,0.046c-0.01,0.021 -0.015,0.047 -0.015,0.079l0,0.27l-0.156,-0l0,-0.284c0,-0.043 -0.009,-0.075 -0.027,-0.096c-0.018,-0.021 -0.043,-0.031 -0.075,-0.031c-0.023,0 -0.043,0.005 -0.061,0.015c-0.018,0.01 -0.032,0.026 -0.042,0.046c-0.01,0.021 -0.015,0.047 -0.015,0.079l0,0.27l-0.156,-0Z" style="fill:#1261a0;fill-rule:nonzero;"/></g><g transform="matrix(41.666667,0,0,41.666667,672.652783,137.755555)"><path d="M0.339,0.008c-0.061,0 -0.115,-0.012 -0.161,-0.036c-0.046,-0.024 -0.082,-0.057 -0.107,-0.098c-0.025,-0.042 -0.038,-0.089 -0.038,-0.142c0,-0.054 0.012,-0.101 0.037,-0.143c0.025,-0.042 0.059,-0.074 0.102,-0.098c0.043,-0.024 0.092,-0.035 0.147,-0.035c0.053,0 0.1,0.011 0.143,0.034c0.042,0.022 0.076,0.054 0.1,0.096c0.025,0.042 0.037,0.091 0.037,0.149c0,0.006 -0,0.013 -0.001,0.02c-0,0.008 -0.001,0.015 -0.002,0.021l-0.437,0l0,-0.091l0.355,0l-0.06,0.027c0,-0.028 -0.005,-0.052 -0.017,-0.073c-0.011,-0.021 -0.027,-0.037 -0.047,-0.049c-0.02,-0.012 -0.043,-0.018 -0.07,-0.018c-0.027,0 -0.05,0.006 -0.071,0.018c-0.02,0.012 -0.036,0.028 -0.047,0.049c-0.011,0.021 -0.017,0.046 -0.017,0.074l0,0.024c-0,0.029 0.006,0.055 0.019,0.077c0.013,0.022 0.031,0.039 0.055,0.051c0.024,0.012 0.052,0.018 0.084,0.018c0.029,-0 0.054,-0.004 0.075,-0.013c0.022,-0.009 0.042,-0.022 0.06,-0.04l0.083,0.09c-0.025,0.028 -0.056,0.05 -0.093,0.065c-0.037,0.015 -0.08,0.022 -0.129,0.022Z" style="fill:#1261a0;fill-rule:nonzero;"/></g><g transform="matrix(41.666667,0,0,41.666667,698.944449,137.755555)"><path d="M0.303,0.008c-0.05,0 -0.096,-0.011 -0.136,-0.034c-0.041,-0.023 -0.073,-0.055 -0.097,-0.096c-0.024,-0.041 -0.035,-0.09 -0.035,-0.146c0,-0.056 0.012,-0.105 0.035,-0.146c0.024,-0.041 0.056,-0.073 0.097,-0.096c0.041,-0.023 0.086,-0.034 0.136,-0.034c0.046,0 0.085,0.01 0.119,0.03c0.034,0.02 0.06,0.05 0.079,0.091c0.019,0.041 0.028,0.093 0.028,0.156c0,0.063 -0.009,0.115 -0.027,0.156c-0.018,0.041 -0.044,0.071 -0.078,0.091c-0.034,0.02 -0.074,0.03 -0.122,0.03Zm0.027,-0.128c0.026,0 0.049,-0.006 0.07,-0.018c0.021,-0.012 0.037,-0.029 0.049,-0.052c0.012,-0.023 0.018,-0.049 0.018,-0.08c0,-0.031 -0.006,-0.058 -0.018,-0.08c-0.012,-0.022 -0.029,-0.039 -0.049,-0.051c-0.021,-0.012 -0.044,-0.018 -0.07,-0.018c-0.026,0 -0.049,0.006 -0.07,0.018c-0.021,0.012 -0.037,0.029 -0.049,0.051c-0.012,0.022 -0.018,0.049 -0.018,0.08c0,0.031 0.006,0.057 0.018,0.08c0.012,0.023 0.029,0.04 0.049,0.052c0.021,0.012 0.044,0.018 0.07,0.018Zm0.142,0.12l0,-0.11l0.003,-0.16l-0.01,-0.16l0,-0.313l0.156,0l0,0.742l-0.149,-0Z" style="fill:#1261a0;fill-rule:nonzero;"/></g><g transform="matrix(41.666667,0,0,41.666667,727.777783,137.755555)"><path d="M0.072,-0l0,-0.538l0.156,0l0,0.538l-0.156,-0Zm0.078,-0.613c-0.029,0 -0.052,-0.008 -0.07,-0.025c-0.018,-0.017 -0.027,-0.037 -0.027,-0.062c0,-0.025 0.009,-0.045 0.027,-0.062c0.018,-0.017 0.041,-0.025 0.07,-0.025c0.029,0 0.052,0.008 0.07,0.024c0.018,0.016 0.027,0.036 0.027,0.061c0,0.026 -0.009,0.047 -0.027,0.064c-0.018,0.017 -0.041,0.026 -0.071,0.026Z" style="fill:#1261a0;fill-rule:nonzero;"/></g><g transform="matrix(41.666667,0,0,41.666667,740.319449,137.755555)"><path d="M0.402,-0l0,-0.105l-0.009,-0.024l0,-0.188c0,-0.034 -0.01,-0.059 -0.031,-0.078c-0.02,-0.018 -0.052,-0.028 -0.094,-0.028c-0.028,-0 -0.056,0.004 -0.084,0.013c-0.028,0.009 -0.051,0.021 -0.071,0.036l-0.056,-0.109c0.03,-0.021 0.065,-0.037 0.106,-0.048c0.041,-0.011 0.083,-0.017 0.126,-0.017c0.082,0 0.146,0.019 0.191,0.058c0.045,0.039 0.068,0.099 0.068,0.18l0,0.307l-0.147,-0Zm-0.163,0.008c-0.042,0 -0.078,-0.007 -0.108,-0.021c-0.03,-0.014 -0.053,-0.034 -0.069,-0.058c-0.016,-0.025 -0.024,-0.052 -0.024,-0.083c0,-0.032 0.008,-0.06 0.023,-0.084c0.016,-0.024 0.04,-0.043 0.074,-0.057c0.034,-0.014 0.078,-0.021 0.133,-0.021l0.142,0l0,0.091l-0.125,0c-0.037,0 -0.062,0.006 -0.076,0.018c-0.014,0.012 -0.02,0.027 -0.02,0.046c0,0.019 0.008,0.035 0.023,0.047c0.016,0.012 0.037,0.018 0.064,0.018c0.026,0 0.05,-0.006 0.071,-0.018c0.021,-0.012 0.036,-0.03 0.045,-0.055l0.024,0.072c-0.011,0.034 -0.032,0.06 -0.062,0.078c-0.03,0.018 -0.069,0.027 -0.116,0.027Z" style="fill:#1261a0;fill-rule:nonzero;"/></g><g transform="matrix(41.666667,0,0,41.666667,766.027783,137.755555)"></g><g id="layer2"><path id="path1" d="M63.947,198.508c27.727,0 63.411,-142.591 68.635,-145.842c0,0 34.639,145.192 59.956,145.842c0,0 2.242,-145.192 24.745,-145.842" style="fill:none;fill-rule:nonzero;stroke:#1261a0;stroke-width:8.55px;"/><path id="path4" d="M192.371,200.106c-14.947,-11.795 -89.683,-70.771 -113.357,-65.914" style="fill:none;fill-rule:nonzero;stroke:#1261a0;stroke-width:8.55px;"/><path id="path5" d="M192.371,49.717l24.912,0l0,29.488" style="fill:none;fill-rule:nonzero;stroke:#1261a0;stroke-width:8.55px;"/><path id="path6" d="M87.74,200.106l-24.912,0l0,-29.488" style="fill:none;fill-rule:nonzero;stroke:#1261a0;stroke-width:8.55px;"/></g></svg>